# xmcd
#
# Track frame offsets:
#	150
#	15709
#	30633
#	46775
#	62705
#	75897
#	92735
#	108296
#	123220
#	139361
#	155289
#	168482
#
# Disc length: 2470 seconds
#
# Revision: 1
# Processed by: cddbd v1.5.2PL0 Copyright (c) Steve Scherf et al.
# Submitted via: audiograbber 1.83.01
#
DISCID=8a09a40c
DTITLE=ChartBuster Karaoke - CB20053
DYEAR=1900
DGENRE=KARAOKE
TTITLE0=Martina McBride - Wrong Again (Vocal Version)
TTITLE1=Suzy Bogguss - Nobody Love, Nobody Gets Hurt (Vocal Version)
TTITLE2=Trisha Yearwood - Where Your Road Leads (Vocal Version)
TTITLE3=Wynonna - Woman To Woman (Vocal Version)
TTITLE4=Danni Leigh - If The Jukebox Took Teardrops (Vocal Version)
TTITLE5=Allison Moore - Set You Free (Vocal Version)
TTITLE6=Martina McBride - Wrong Again
TTITLE7=Suzy Bogguss - Nobody love, Nobody Gets Hurt
TTITLE8=Trisha Yearwood - Where Your Road Leads
TTITLE9=Wynonna - Woman To Woman
TTITLE10=Danni Leigh - If The Jukebox Took Teardrops
TTITLE11=Allison Moore - Set you Free
EXTD=
EXTT0=
EXTT1=
EXTT2=
EXTT3=
EXTT4=
EXTT5=
EXTT6=
EXTT7=
EXTT8=
EXTT9=
EXTT10=
EXTT11=
PLAYORDER=
